<svg width="200" height="53" viewBox="0 0 200 53" fill="none" xmlns="http://www.w3.org/2000/svg">
<mask id="path-1-outside-1_295_117" maskUnits="userSpaceOnUse" x="-1" y="3" width="163" height="46" fill="black">
<rect fill="white" x="-1" y="3" width="163" height="46"/>
<path d="M11.65 37.4H22.85V44H3.1V8.9H11.65V37.4ZM43.5281 44.35C40.2281 44.35 37.1948 43.5833 34.4281 42.05C31.6948 40.5167 29.5115 38.3833 27.8781 35.65C26.2781 32.8833 25.4781 29.7833 25.4781 26.35C25.4781 22.9167 26.2781 19.8333 27.8781 17.1C29.5115 14.3667 31.6948 12.2333 34.4281 10.7C37.1948 9.16667 40.2281 8.4 43.5281 8.4C46.8281 8.4 49.8448 9.16667 52.5781 10.7C55.3448 12.2333 57.5115 14.3667 59.0781 17.1C60.6781 19.8333 61.4781 22.9167 61.4781 26.35C61.4781 29.7833 60.6781 32.8833 59.0781 35.65C57.4781 38.3833 55.3115 40.5167 52.5781 42.05C49.8448 43.5833 46.8281 44.35 43.5281 44.35ZM43.5281 36.55C46.3281 36.55 48.5615 35.6167 50.2281 33.75C51.9281 31.8833 52.7781 29.4167 52.7781 26.35C52.7781 23.25 51.9281 20.7833 50.2281 18.95C48.5615 17.0833 46.3281 16.15 43.5281 16.15C40.6948 16.15 38.4281 17.0667 36.7281 18.9C35.0615 20.7333 34.2281 23.2167 34.2281 26.35C34.2281 29.45 35.0615 31.9333 36.7281 33.8C38.4281 35.6333 40.6948 36.55 43.5281 36.55ZM91.4848 8.9V15.75H82.1848V44H73.6348V15.75H64.3348V8.9H91.4848ZM112.376 44.35C109.076 44.35 106.042 43.5833 103.276 42.05C100.542 40.5167 98.3591 38.3833 96.7258 35.65C95.1258 32.8833 94.3258 29.7833 94.3258 26.35C94.3258 22.9167 95.1258 19.8333 96.7258 17.1C98.3591 14.3667 100.542 12.2333 103.276 10.7C106.042 9.16667 109.076 8.4 112.376 8.4C115.676 8.4 118.692 9.16667 121.426 10.7C124.192 12.2333 126.359 14.3667 127.926 17.1C129.526 19.8333 130.326 22.9167 130.326 26.35C130.326 29.7833 129.526 32.8833 127.926 35.65C126.326 38.3833 124.159 40.5167 121.426 42.05C118.692 43.5833 115.676 44.35 112.376 44.35ZM112.376 36.55C115.176 36.55 117.409 35.6167 119.076 33.75C120.776 31.8833 121.626 29.4167 121.626 26.35C121.626 23.25 120.776 20.7833 119.076 18.95C117.409 17.0833 115.176 16.15 112.376 16.15C109.542 16.15 107.276 17.0667 105.576 18.9C103.909 20.7333 103.076 23.2167 103.076 26.35C103.076 29.45 103.909 31.9333 105.576 33.8C107.276 35.6333 109.542 36.55 112.376 36.55ZM157.532 13.9L144.982 44H136.232L148.932 14.85H133.382V7.55H157.532V13.9Z"/>
</mask>
<path d="M11.65 37.4H22.85V44H3.1V8.9H11.65V37.4ZM43.5281 44.35C40.2281 44.35 37.1948 43.5833 34.4281 42.05C31.6948 40.5167 29.5115 38.3833 27.8781 35.65C26.2781 32.8833 25.4781 29.7833 25.4781 26.35C25.4781 22.9167 26.2781 19.8333 27.8781 17.1C29.5115 14.3667 31.6948 12.2333 34.4281 10.7C37.1948 9.16667 40.2281 8.4 43.5281 8.4C46.8281 8.4 49.8448 9.16667 52.5781 10.7C55.3448 12.2333 57.5115 14.3667 59.0781 17.1C60.6781 19.8333 61.4781 22.9167 61.4781 26.35C61.4781 29.7833 60.6781 32.8833 59.0781 35.65C57.4781 38.3833 55.3115 40.5167 52.5781 42.05C49.8448 43.5833 46.8281 44.35 43.5281 44.35ZM43.5281 36.55C46.3281 36.55 48.5615 35.6167 50.2281 33.75C51.9281 31.8833 52.7781 29.4167 52.7781 26.35C52.7781 23.25 51.9281 20.7833 50.2281 18.95C48.5615 17.0833 46.3281 16.15 43.5281 16.15C40.6948 16.15 38.4281 17.0667 36.7281 18.9C35.0615 20.7333 34.2281 23.2167 34.2281 26.35C34.2281 29.45 35.0615 31.9333 36.7281 33.8C38.4281 35.6333 40.6948 36.55 43.5281 36.55ZM91.4848 8.9V15.75H82.1848V44H73.6348V15.75H64.3348V8.9H91.4848ZM112.376 44.35C109.076 44.35 106.042 43.5833 103.276 42.05C100.542 40.5167 98.3591 38.3833 96.7258 35.65C95.1258 32.8833 94.3258 29.7833 94.3258 26.35C94.3258 22.9167 95.1258 19.8333 96.7258 17.1C98.3591 14.3667 100.542 12.2333 103.276 10.7C106.042 9.16667 109.076 8.4 112.376 8.4C115.676 8.4 118.692 9.16667 121.426 10.7C124.192 12.2333 126.359 14.3667 127.926 17.1C129.526 19.8333 130.326 22.9167 130.326 26.35C130.326 29.7833 129.526 32.8833 127.926 35.65C126.326 38.3833 124.159 40.5167 121.426 42.05C118.692 43.5833 115.676 44.35 112.376 44.35ZM112.376 36.55C115.176 36.55 117.409 35.6167 119.076 33.75C120.776 31.8833 121.626 29.4167 121.626 26.35C121.626 23.25 120.776 20.7833 119.076 18.95C117.409 17.0833 115.176 16.15 112.376 16.15C109.542 16.15 107.276 17.0667 105.576 18.9C103.909 20.7333 103.076 23.2167 103.076 26.35C103.076 29.45 103.909 31.9333 105.576 33.8C107.276 35.6333 109.542 36.55 112.376 36.55ZM157.532 13.9L144.982 44H136.232L148.932 14.85H133.382V7.55H157.532V13.9Z" fill="#4364F7"/>
<path d="M11.65 37.4H7.65V41.4H11.65V37.4ZM22.85 37.4H26.85V33.4H22.85V37.4ZM22.85 44V48H26.85V44H22.85ZM3.1 44H-0.9V48H3.1V44ZM3.1 8.9V4.9H-0.9V8.9H3.1ZM11.65 8.9H15.65V4.9H11.65V8.9ZM11.65 41.4H22.85V33.4H11.65V41.4ZM18.85 37.4V44H26.85V37.4H18.85ZM22.85 40H3.1V48H22.85V40ZM7.1 44V8.9H-0.9V44H7.1ZM3.1 12.9H11.65V4.9H3.1V12.9ZM7.65 8.9V37.4H15.65V8.9H7.65ZM34.4281 42.05L32.4711 45.5386L32.4801 45.5436L32.4891 45.5486L34.4281 42.05ZM27.8781 35.65L24.4155 37.6525L24.4298 37.6773L24.4445 37.7018L27.8781 35.65ZM27.8781 17.1L24.4445 15.0482L24.4352 15.0637L24.4261 15.0793L27.8781 17.1ZM34.4281 10.7L32.4891 7.20138L32.4801 7.20638L32.4711 7.21143L34.4281 10.7ZM52.5781 10.7L50.6211 14.1886L50.6301 14.1936L50.6391 14.1986L52.5781 10.7ZM59.0781 17.1L55.6078 19.0891L55.6168 19.105L55.6261 19.1207L59.0781 17.1ZM59.0781 35.65L62.5302 37.6707L62.5355 37.6616L62.5408 37.6525L59.0781 35.65ZM52.5781 42.05L54.5351 45.5386L54.5351 45.5386L52.5781 42.05ZM50.2281 33.75L47.2708 31.0567L47.2575 31.0712L47.2444 31.0859L50.2281 33.75ZM50.2281 18.95L47.2444 21.6141L47.2695 21.6421L47.2951 21.6698L50.2281 18.95ZM36.7281 18.9L33.7951 16.1802L33.7816 16.1947L33.7684 16.2093L36.7281 18.9ZM36.7281 33.8L33.7444 36.4641L33.7695 36.4921L33.7951 36.5198L36.7281 33.8ZM43.5281 40.35C40.876 40.35 38.5143 39.7414 36.3671 38.5514L32.4891 45.5486C35.8753 47.4253 39.5802 48.35 43.5281 48.35V40.35ZM36.3851 38.5614C34.2712 37.3755 32.5928 35.7419 31.3118 33.5982L24.4445 37.7018C26.4301 41.0247 29.1184 43.6578 32.4711 45.5386L36.3851 38.5614ZM31.3408 33.6475C30.1189 31.5346 29.4781 29.1342 29.4781 26.35H21.4781C21.4781 30.4325 22.4374 34.2321 24.4155 37.6525L31.3408 33.6475ZM29.4781 26.35C29.4781 23.5653 30.1189 21.19 31.3302 19.1207L24.4261 15.0793C22.4373 18.4767 21.4781 22.268 21.4781 26.35H29.4781ZM31.3118 19.1518C32.5928 17.0081 34.2712 15.3745 36.3851 14.1886L32.4711 7.21143C29.1184 9.09221 26.4301 11.7253 24.4445 15.0482L31.3118 19.1518ZM36.3671 14.1986C38.5143 13.0086 40.876 12.4 43.5281 12.4V4.4C39.5802 4.4 35.8753 5.32474 32.4891 7.20138L36.3671 14.1986ZM43.5281 12.4C46.1804 12.4 48.5175 13.0085 50.6211 14.1886L54.5351 7.21143C51.1721 5.32483 47.4759 4.4 43.5281 4.4V12.4ZM50.6391 14.1986C52.7698 15.3795 54.4057 16.992 55.6078 19.0891L62.5485 15.1109C60.6172 11.7414 57.9197 9.08717 54.5171 7.20138L50.6391 14.1986ZM55.6261 19.1207C56.8373 21.19 57.4781 23.5653 57.4781 26.35H65.4781C65.4781 22.268 64.5189 18.4767 62.5302 15.0793L55.6261 19.1207ZM57.4781 26.35C57.4781 29.1342 56.8374 31.5346 55.6155 33.6475L62.5408 37.6525C64.5189 34.2321 65.4781 30.4325 65.4781 26.35H57.4781ZM55.6261 33.6293C54.3812 35.756 52.7277 37.3797 50.6211 38.5614L54.5351 45.5386C57.8952 43.6536 60.5751 41.0107 62.5302 37.6707L55.6261 33.6293ZM50.6211 38.5614C48.5175 39.7415 46.1804 40.35 43.5281 40.35V48.35C47.4759 48.35 51.1721 47.4252 54.5351 45.5386L50.6211 38.5614ZM43.5281 40.55C47.3167 40.55 50.6913 39.2371 53.2119 36.4141L47.2444 31.0859C46.4316 31.9962 45.3396 32.55 43.5281 32.55V40.55ZM53.1855 36.4433C55.6937 33.6892 56.7781 30.1882 56.7781 26.35H48.7781C48.7781 28.6452 48.1625 30.0775 47.2708 31.0567L53.1855 36.4433ZM56.7781 26.35C56.7781 22.4947 55.7018 18.9701 53.1612 16.2302L47.2951 21.6698C48.1544 22.5966 48.7781 24.0053 48.7781 26.35H56.7781ZM53.2119 16.2859C50.6913 13.4629 47.3167 12.15 43.5281 12.15V20.15C45.3396 20.15 46.4316 20.7038 47.2444 21.6141L53.2119 16.2859ZM43.5281 12.15C39.7451 12.15 36.3565 13.4179 33.7951 16.1802L39.6612 21.6198C40.4998 20.7154 41.6445 20.15 43.5281 20.15V12.15ZM33.7684 16.2093C31.2689 18.9587 30.2281 22.4947 30.2281 26.35H38.2281C38.2281 23.9386 38.854 22.5079 39.6879 21.5907L33.7684 16.2093ZM30.2281 26.35C30.2281 30.1883 31.2769 33.7005 33.7444 36.4641L39.7119 31.1359C38.846 30.1662 38.2281 28.7117 38.2281 26.35H30.2281ZM33.7951 36.5198C36.3565 39.282 39.7451 40.55 43.5281 40.55V32.55C41.6445 32.55 40.4998 31.9846 39.6612 31.0802L33.7951 36.5198ZM91.4848 8.9H95.4848V4.9H91.4848V8.9ZM91.4848 15.75V19.75H95.4848V15.75H91.4848ZM82.1848 15.75V11.75H78.1848V15.75H82.1848ZM82.1848 44V48H86.1848V44H82.1848ZM73.6348 44H69.6348V48H73.6348V44ZM73.6348 15.75H77.6348V11.75H73.6348V15.75ZM64.3348 15.75H60.3348V19.75H64.3348V15.75ZM64.3348 8.9V4.9H60.3348V8.9H64.3348ZM87.4848 8.9V15.75H95.4848V8.9H87.4848ZM91.4848 11.75H82.1848V19.75H91.4848V11.75ZM78.1848 15.75V44H86.1848V15.75H78.1848ZM82.1848 40H73.6348V48H82.1848V40ZM77.6348 44V15.75H69.6348V44H77.6348ZM73.6348 11.75H64.3348V19.75H73.6348V11.75ZM68.3348 15.75V8.9H60.3348V15.75H68.3348ZM64.3348 12.9H91.4848V4.9H64.3348V12.9ZM103.276 42.05L101.319 45.5386L101.328 45.5436L101.337 45.5486L103.276 42.05ZM96.7258 35.65L93.2631 37.6525L93.2774 37.6773L93.2921 37.7018L96.7258 35.65ZM96.7258 17.1L93.2921 15.0482L93.2829 15.0637L93.2737 15.0793L96.7258 17.1ZM103.276 10.7L101.337 7.20138L101.328 7.20638L101.319 7.21143L103.276 10.7ZM121.426 10.7L119.469 14.1886L119.478 14.1936L119.487 14.1986L121.426 10.7ZM127.926 17.1L124.455 19.0891L124.464 19.105L124.474 19.1207L127.926 17.1ZM127.926 35.65L131.378 37.6707L131.383 37.6616L131.388 37.6525L127.926 35.65ZM121.426 42.05L123.383 45.5386L123.383 45.5386L121.426 42.05ZM119.076 33.75L116.118 31.0567L116.105 31.0712L116.092 31.0859L119.076 33.75ZM119.076 18.95L116.092 21.6141L116.117 21.6421L116.143 21.6698L119.076 18.95ZM105.576 18.9L102.643 16.1802L102.629 16.1947L102.616 16.2093L105.576 18.9ZM105.576 33.8L102.592 36.4641L102.617 36.4921L102.643 36.5198L105.576 33.8ZM112.376 40.35C109.724 40.35 107.362 39.7414 105.215 38.5514L101.337 45.5486C104.723 47.4253 108.428 48.35 112.376 48.35V40.35ZM105.233 38.5614C103.119 37.3755 101.44 35.7419 100.159 33.5982L93.2921 37.7018C95.2778 41.0247 97.9661 43.6578 101.319 45.5386L105.233 38.5614ZM100.188 33.6475C98.9665 31.5346 98.3258 29.1342 98.3258 26.35H90.3258C90.3258 30.4325 91.285 34.2321 93.2631 37.6525L100.188 33.6475ZM98.3258 26.35C98.3258 23.5653 98.9666 21.19 100.178 19.1207L93.2737 15.0793C91.285 18.4767 90.3258 22.268 90.3258 26.35H98.3258ZM100.159 19.1518C101.44 17.0081 103.119 15.3745 105.233 14.1886L101.319 7.21143C97.9661 9.09221 95.2778 11.7253 93.2921 15.0482L100.159 19.1518ZM105.215 14.1986C107.362 13.0086 109.724 12.4 112.376 12.4V4.4C108.428 4.4 104.723 5.32474 101.337 7.20138L105.215 14.1986ZM112.376 12.4C115.028 12.4 117.365 13.0085 119.469 14.1886L123.383 7.21143C120.02 5.32483 116.324 4.4 112.376 4.4V12.4ZM119.487 14.1986C121.618 15.3795 123.253 16.992 124.455 19.0891L131.396 15.1109C129.465 11.7414 126.767 9.08717 123.365 7.20138L119.487 14.1986ZM124.474 19.1207C125.685 21.19 126.326 23.5653 126.326 26.35H134.326C134.326 22.268 133.367 18.4767 131.378 15.0793L124.474 19.1207ZM126.326 26.35C126.326 29.1342 125.685 31.5346 124.463 33.6475L131.388 37.6525C133.367 34.2321 134.326 30.4325 134.326 26.35H126.326ZM124.474 33.6293C123.229 35.756 121.575 37.3797 119.469 38.5614L123.383 45.5386C126.743 43.6536 129.423 41.0107 131.378 37.6707L124.474 33.6293ZM119.469 38.5614C117.365 39.7415 115.028 40.35 112.376 40.35V48.35C116.324 48.35 120.02 47.4252 123.383 45.5386L119.469 38.5614ZM112.376 40.55C116.164 40.55 119.539 39.2371 122.06 36.4141L116.092 31.0859C115.279 31.9962 114.187 32.55 112.376 32.55V40.55ZM122.033 36.4433C124.541 33.6892 125.626 30.1882 125.626 26.35H117.626C117.626 28.6452 117.01 30.0775 116.118 31.0567L122.033 36.4433ZM125.626 26.35C125.626 22.4947 124.549 18.9701 122.009 16.2302L116.143 21.6698C117.002 22.5966 117.626 24.0053 117.626 26.35H125.626ZM122.06 16.2859C119.539 13.4629 116.164 12.15 112.376 12.15V20.15C114.187 20.15 115.279 20.7038 116.092 21.6141L122.06 16.2859ZM112.376 12.15C108.593 12.15 105.204 13.4179 102.643 16.1802L108.509 21.6198C109.347 20.7154 110.492 20.15 112.376 20.15V12.15ZM102.616 16.2093C100.117 18.9587 99.0758 22.4947 99.0758 26.35H107.076C107.076 23.9386 107.702 22.5079 108.536 21.5907L102.616 16.2093ZM99.0758 26.35C99.0758 30.1883 100.125 33.7005 102.592 36.4641L108.56 31.1359C107.694 30.1662 107.076 28.7117 107.076 26.35H99.0758ZM102.643 36.5198C105.204 39.282 108.593 40.55 112.376 40.55V32.55C110.492 32.55 109.347 31.9846 108.509 31.0802L102.643 36.5198ZM157.532 13.9L161.224 15.4393L161.532 14.7005V13.9H157.532ZM144.982 44V48H147.648L148.674 45.5393L144.982 44ZM136.232 44L132.565 42.4023L130.127 48H136.232V44ZM148.932 14.85L152.6 16.4477L155.038 10.85H148.932V14.85ZM133.382 14.85H129.382V18.85H133.382V14.85ZM133.382 7.55V3.55H129.382V7.55H133.382ZM157.532 7.55H161.532V3.55H157.532V7.55ZM153.84 12.3607L141.29 42.4607L148.674 45.5393L161.224 15.4393L153.84 12.3607ZM144.982 40H136.232V48H144.982V40ZM139.9 45.5977L152.6 16.4477L145.265 13.2523L132.565 42.4023L139.9 45.5977ZM148.932 10.85H133.382V18.85H148.932V10.85ZM137.382 14.85V7.55H129.382V14.85H137.382ZM133.382 11.55H157.532V3.55H133.382V11.55ZM153.532 7.55V13.9H161.532V7.55H153.532Z" fill="black" mask="url(#path-1-outside-1_295_117)"/>
<mask id="path-3-outside-2_295_117" maskUnits="userSpaceOnUse" x="29.8511" y="3" width="163" height="46" fill="black">
<rect fill="white" x="29.8511" y="3" width="163" height="46"/>
<path d="M42.5011 37.4H53.7011V44H33.9511V8.9H42.5011V37.4ZM74.3792 44.35C71.0792 44.35 68.0459 43.5833 65.2792 42.05C62.5459 40.5167 60.3625 38.3833 58.7292 35.65C57.1292 32.8833 56.3292 29.7833 56.3292 26.35C56.3292 22.9167 57.1292 19.8333 58.7292 17.1C60.3625 14.3667 62.5459 12.2333 65.2792 10.7C68.0459 9.16667 71.0792 8.4 74.3792 8.4C77.6792 8.4 80.6959 9.16667 83.4292 10.7C86.1959 12.2333 88.3625 14.3667 89.9292 17.1C91.5292 19.8333 92.3292 22.9167 92.3292 26.35C92.3292 29.7833 91.5292 32.8833 89.9292 35.65C88.3292 38.3833 86.1625 40.5167 83.4292 42.05C80.6959 43.5833 77.6792 44.35 74.3792 44.35ZM74.3792 36.55C77.1792 36.55 79.4125 35.6167 81.0792 33.75C82.7792 31.8833 83.6292 29.4167 83.6292 26.35C83.6292 23.25 82.7792 20.7833 81.0792 18.95C79.4125 17.0833 77.1792 16.15 74.3792 16.15C71.5459 16.15 69.2792 17.0667 67.5792 18.9C65.9125 20.7333 65.0792 23.2167 65.0792 26.35C65.0792 29.45 65.9125 31.9333 67.5792 33.8C69.2792 35.6333 71.5459 36.55 74.3792 36.55ZM122.336 8.9V15.75H113.036V44H104.486V15.75H95.1858V8.9H122.336ZM143.227 44.35C139.927 44.35 136.894 43.5833 134.127 42.05C131.394 40.5167 129.21 38.3833 127.577 35.65C125.977 32.8833 125.177 29.7833 125.177 26.35C125.177 22.9167 125.977 19.8333 127.577 17.1C129.21 14.3667 131.394 12.2333 134.127 10.7C136.894 9.16667 139.927 8.4 143.227 8.4C146.527 8.4 149.544 9.16667 152.277 10.7C155.044 12.2333 157.21 14.3667 158.777 17.1C160.377 19.8333 161.177 22.9167 161.177 26.35C161.177 29.7833 160.377 32.8833 158.777 35.65C157.177 38.3833 155.01 40.5167 152.277 42.05C149.544 43.5833 146.527 44.35 143.227 44.35ZM143.227 36.55C146.027 36.55 148.26 35.6167 149.927 33.75C151.627 31.8833 152.477 29.4167 152.477 26.35C152.477 23.25 151.627 20.7833 149.927 18.95C148.26 17.0833 146.027 16.15 143.227 16.15C140.394 16.15 138.127 17.0667 136.427 18.9C134.76 20.7333 133.927 23.2167 133.927 26.35C133.927 29.45 134.76 31.9333 136.427 33.8C138.127 35.6333 140.394 36.55 143.227 36.55ZM188.383 13.9L175.833 44H167.083L179.783 14.85H164.233V7.55H188.383V13.9Z"/>
</mask>
<path d="M42.5011 37.4H53.7011V44H33.9511V8.9H42.5011V37.4ZM74.3792 44.35C71.0792 44.35 68.0459 43.5833 65.2792 42.05C62.5459 40.5167 60.3625 38.3833 58.7292 35.65C57.1292 32.8833 56.3292 29.7833 56.3292 26.35C56.3292 22.9167 57.1292 19.8333 58.7292 17.1C60.3625 14.3667 62.5459 12.2333 65.2792 10.7C68.0459 9.16667 71.0792 8.4 74.3792 8.4C77.6792 8.4 80.6959 9.16667 83.4292 10.7C86.1959 12.2333 88.3625 14.3667 89.9292 17.1C91.5292 19.8333 92.3292 22.9167 92.3292 26.35C92.3292 29.7833 91.5292 32.8833 89.9292 35.65C88.3292 38.3833 86.1625 40.5167 83.4292 42.05C80.6959 43.5833 77.6792 44.35 74.3792 44.35ZM74.3792 36.55C77.1792 36.55 79.4125 35.6167 81.0792 33.75C82.7792 31.8833 83.6292 29.4167 83.6292 26.35C83.6292 23.25 82.7792 20.7833 81.0792 18.95C79.4125 17.0833 77.1792 16.15 74.3792 16.15C71.5459 16.15 69.2792 17.0667 67.5792 18.9C65.9125 20.7333 65.0792 23.2167 65.0792 26.35C65.0792 29.45 65.9125 31.9333 67.5792 33.8C69.2792 35.6333 71.5459 36.55 74.3792 36.55ZM122.336 8.9V15.75H113.036V44H104.486V15.75H95.1858V8.9H122.336ZM143.227 44.35C139.927 44.35 136.894 43.5833 134.127 42.05C131.394 40.5167 129.21 38.3833 127.577 35.65C125.977 32.8833 125.177 29.7833 125.177 26.35C125.177 22.9167 125.977 19.8333 127.577 17.1C129.21 14.3667 131.394 12.2333 134.127 10.7C136.894 9.16667 139.927 8.4 143.227 8.4C146.527 8.4 149.544 9.16667 152.277 10.7C155.044 12.2333 157.21 14.3667 158.777 17.1C160.377 19.8333 161.177 22.9167 161.177 26.35C161.177 29.7833 160.377 32.8833 158.777 35.65C157.177 38.3833 155.01 40.5167 152.277 42.05C149.544 43.5833 146.527 44.35 143.227 44.35ZM143.227 36.55C146.027 36.55 148.26 35.6167 149.927 33.75C151.627 31.8833 152.477 29.4167 152.477 26.35C152.477 23.25 151.627 20.7833 149.927 18.95C148.26 17.0833 146.027 16.15 143.227 16.15C140.394 16.15 138.127 17.0667 136.427 18.9C134.76 20.7333 133.927 23.2167 133.927 26.35C133.927 29.45 134.76 31.9333 136.427 33.8C138.127 35.6333 140.394 36.55 143.227 36.55ZM188.383 13.9L175.833 44H167.083L179.783 14.85H164.233V7.55H188.383V13.9Z" fill="white"/>
<path d="M42.5011 37.4H38.5011V41.4H42.5011V37.4ZM53.7011 37.4H57.7011V33.4H53.7011V37.4ZM53.7011 44V48H57.7011V44H53.7011ZM33.9511 44H29.9511V48H33.9511V44ZM33.9511 8.9V4.9H29.9511V8.9H33.9511ZM42.5011 8.9H46.5011V4.9H42.5011V8.9ZM42.5011 41.4H53.7011V33.4H42.5011V41.4ZM49.7011 37.4V44H57.7011V37.4H49.7011ZM53.7011 40H33.9511V48H53.7011V40ZM37.9511 44V8.9H29.9511V44H37.9511ZM33.9511 12.9H42.5011V4.9H33.9511V12.9ZM38.5011 8.9V37.4H46.5011V8.9H38.5011ZM65.2792 42.05L63.3222 45.5386L63.3312 45.5436L63.3402 45.5486L65.2792 42.05ZM58.7292 35.65L55.2665 37.6525L55.2809 37.6773L55.2955 37.7018L58.7292 35.65ZM58.7292 17.1L55.2955 15.0482L55.2863 15.0637L55.2771 15.0793L58.7292 17.1ZM65.2792 10.7L63.3402 7.20138L63.3312 7.20638L63.3222 7.21143L65.2792 10.7ZM83.4292 10.7L81.4722 14.1886L81.4812 14.1936L81.4902 14.1986L83.4292 10.7ZM89.9292 17.1L86.4588 19.0891L86.4679 19.105L86.4771 19.1207L89.9292 17.1ZM89.9292 35.65L93.3813 37.6707L93.3866 37.6616L93.3919 37.6525L89.9292 35.65ZM83.4292 42.05L85.3862 45.5386L85.3862 45.5386L83.4292 42.05ZM81.0792 33.75L78.1218 31.0567L78.1086 31.0712L78.0954 31.0859L81.0792 33.75ZM81.0792 18.95L78.0954 21.6141L78.1205 21.6421L78.1461 21.6698L81.0792 18.95ZM67.5792 18.9L64.6461 16.1802L64.6327 16.1947L64.6194 16.2093L67.5792 18.9ZM67.5792 33.8L64.5954 36.4641L64.6205 36.4921L64.6461 36.5198L67.5792 33.8ZM74.3792 40.35C71.7271 40.35 69.3654 39.7414 67.2182 38.5514L63.3402 45.5486C66.7263 47.4253 70.4313 48.35 74.3792 48.35V40.35ZM67.2362 38.5614C65.1222 37.3755 63.4439 35.7419 62.1629 33.5982L55.2955 37.7018C57.2812 41.0247 59.9695 43.6578 63.3222 45.5386L67.2362 38.5614ZM62.1919 33.6475C60.9699 31.5346 60.3292 29.1342 60.3292 26.35H52.3292C52.3292 30.4325 53.2885 34.2321 55.2665 37.6525L62.1919 33.6475ZM60.3292 26.35C60.3292 23.5653 60.97 21.19 62.1813 19.1207L55.2771 15.0793C53.2884 18.4767 52.3292 22.268 52.3292 26.35H60.3292ZM62.1629 19.1518C63.4439 17.0081 65.1222 15.3745 67.2362 14.1886L63.3222 7.21143C59.9695 9.09221 57.2812 11.7253 55.2955 15.0482L62.1629 19.1518ZM67.2182 14.1986C69.3654 13.0086 71.7271 12.4 74.3792 12.4V4.4C70.4313 4.4 66.7263 5.32474 63.3402 7.20138L67.2182 14.1986ZM74.3792 12.4C77.0315 12.4 79.3686 13.0085 81.4722 14.1886L85.3862 7.21143C82.0231 5.32483 78.3269 4.4 74.3792 4.4V12.4ZM81.4902 14.1986C83.6209 15.3795 85.2568 16.992 86.4588 19.0891L93.3996 15.1109C91.4682 11.7414 88.7708 9.08717 85.3682 7.20138L81.4902 14.1986ZM86.4771 19.1207C87.6884 21.19 88.3292 23.5653 88.3292 26.35H96.3292C96.3292 22.268 95.37 18.4767 93.3813 15.0793L86.4771 19.1207ZM88.3292 26.35C88.3292 29.1342 87.6885 31.5346 86.4665 33.6475L93.3919 37.6525C95.3699 34.2321 96.3292 30.4325 96.3292 26.35H88.3292ZM86.4771 33.6293C85.2322 35.756 83.5787 37.3797 81.4722 38.5614L85.3862 45.5386C88.7463 43.6536 91.4262 41.0107 93.3813 37.6707L86.4771 33.6293ZM81.4722 38.5614C79.3686 39.7415 77.0315 40.35 74.3792 40.35V48.35C78.3269 48.35 82.0231 47.4252 85.3862 45.5386L81.4722 38.5614ZM74.3792 40.55C78.1678 40.55 81.5424 39.2371 84.063 36.4141L78.0954 31.0859C77.2827 31.9962 76.1906 32.55 74.3792 32.55V40.55ZM84.0366 36.4433C86.5448 33.6892 87.6292 30.1882 87.6292 26.35H79.6292C79.6292 28.6452 79.0136 30.0775 78.1218 31.0567L84.0366 36.4433ZM87.6292 26.35C87.6292 22.4947 86.5529 18.9701 84.0123 16.2302L78.1461 21.6698C79.0055 22.5966 79.6292 24.0053 79.6292 26.35H87.6292ZM84.063 16.2859C81.5424 13.4629 78.1678 12.15 74.3792 12.15V20.15C76.1906 20.15 77.2827 20.7038 78.0954 21.6141L84.063 16.2859ZM74.3792 12.15C70.5962 12.15 67.2075 13.4179 64.6461 16.1802L70.5123 21.6198C71.3509 20.7154 72.4956 20.15 74.3792 20.15V12.15ZM64.6194 16.2093C62.12 18.9587 61.0792 22.4947 61.0792 26.35H69.0792C69.0792 23.9386 69.7051 22.5079 70.539 21.5907L64.6194 16.2093ZM61.0792 26.35C61.0792 30.1883 62.128 33.7005 64.5954 36.4641L70.563 31.1359C69.6971 30.1662 69.0792 28.7117 69.0792 26.35H61.0792ZM64.6461 36.5198C67.2075 39.282 70.5962 40.55 74.3792 40.55V32.55C72.4956 32.55 71.3509 31.9846 70.5123 31.0802L64.6461 36.5198ZM122.336 8.9H126.336V4.9H122.336V8.9ZM122.336 15.75V19.75H126.336V15.75H122.336ZM113.036 15.75V11.75H109.036V15.75H113.036ZM113.036 44V48H117.036V44H113.036ZM104.486 44H100.486V48H104.486V44ZM104.486 15.75H108.486V11.75H104.486V15.75ZM95.1858 15.75H91.1858V19.75H95.1858V15.75ZM95.1858 8.9V4.9H91.1858V8.9H95.1858ZM118.336 8.9V15.75H126.336V8.9H118.336ZM122.336 11.75H113.036V19.75H122.336V11.75ZM109.036 15.75V44H117.036V15.75H109.036ZM113.036 40H104.486V48H113.036V40ZM108.486 44V15.75H100.486V44H108.486ZM104.486 11.75H95.1858V19.75H104.486V11.75ZM99.1858 15.75V8.9H91.1858V15.75H99.1858ZM95.1858 12.9H122.336V4.9H95.1858V12.9ZM134.127 42.05L132.17 45.5386L132.179 45.5436L132.188 45.5486L134.127 42.05ZM127.577 35.65L124.114 37.6525L124.129 37.6773L124.143 37.7018L127.577 35.65ZM127.577 17.1L124.143 15.0482L124.134 15.0637L124.125 15.0793L127.577 17.1ZM134.127 10.7L132.188 7.20138L132.179 7.20638L132.17 7.21143L134.127 10.7ZM152.277 10.7L150.32 14.1886L150.329 14.1936L150.338 14.1986L152.277 10.7ZM158.777 17.1L155.306 19.0891L155.316 19.105L155.325 19.1207L158.777 17.1ZM158.777 35.65L162.229 37.6707L162.234 37.6616L162.24 37.6525L158.777 35.65ZM152.277 42.05L154.234 45.5386L154.234 45.5386L152.277 42.05ZM149.927 33.75L146.969 31.0567L146.956 31.0712L146.943 31.0859L149.927 33.75ZM149.927 18.95L146.943 21.6141L146.968 21.6421L146.994 21.6698L149.927 18.95ZM136.427 18.9L133.494 16.1802L133.48 16.1947L133.467 16.2093L136.427 18.9ZM136.427 33.8L133.443 36.4641L133.468 36.4921L133.494 36.5198L136.427 33.8ZM143.227 40.35C140.575 40.35 138.213 39.7414 136.066 38.5514L132.188 45.5486C135.574 47.4253 139.279 48.35 143.227 48.35V40.35ZM136.084 38.5614C133.97 37.3755 132.292 35.7419 131.011 33.5982L124.143 37.7018C126.129 41.0247 128.817 43.6578 132.17 45.5386L136.084 38.5614ZM131.04 33.6475C129.818 31.5346 129.177 29.1342 129.177 26.35H121.177C121.177 30.4325 122.136 34.2321 124.114 37.6525L131.04 33.6475ZM129.177 26.35C129.177 23.5653 129.818 21.19 131.029 19.1207L124.125 15.0793C122.136 18.4767 121.177 22.268 121.177 26.35H129.177ZM131.011 19.1518C132.292 17.0081 133.97 15.3745 136.084 14.1886L132.17 7.21143C128.817 9.09221 126.129 11.7253 124.143 15.0482L131.011 19.1518ZM136.066 14.1986C138.213 13.0086 140.575 12.4 143.227 12.4V4.4C139.279 4.4 135.574 5.32474 132.188 7.20138L136.066 14.1986ZM143.227 12.4C145.879 12.4 148.216 13.0085 150.32 14.1886L154.234 7.21143C150.871 5.32483 147.175 4.4 143.227 4.4V12.4ZM150.338 14.1986C152.469 15.3795 154.104 16.992 155.306 19.0891L162.247 15.1109C160.316 11.7414 157.618 9.08717 154.216 7.20138L150.338 14.1986ZM155.325 19.1207C156.536 21.19 157.177 23.5653 157.177 26.35H165.177C165.177 22.268 164.218 18.4767 162.229 15.0793L155.325 19.1207ZM157.177 26.35C157.177 29.1342 156.536 31.5346 155.314 33.6475L162.24 37.6525C164.218 34.2321 165.177 30.4325 165.177 26.35H157.177ZM155.325 33.6293C154.08 35.756 152.426 37.3797 150.32 38.5614L154.234 45.5386C157.594 43.6536 160.274 41.0107 162.229 37.6707L155.325 33.6293ZM150.32 38.5614C148.216 39.7415 145.879 40.35 143.227 40.35V48.35C147.175 48.35 150.871 47.4252 154.234 45.5386L150.32 38.5614ZM143.227 40.55C147.015 40.55 150.39 39.2371 152.911 36.4141L146.943 31.0859C146.13 31.9962 145.038 32.55 143.227 32.55V40.55ZM152.884 36.4433C155.392 33.6892 156.477 30.1882 156.477 26.35H148.477C148.477 28.6452 147.861 30.0775 146.969 31.0567L152.884 36.4433ZM156.477 26.35C156.477 22.4947 155.401 18.9701 152.86 16.2302L146.994 21.6698C147.853 22.5966 148.477 24.0053 148.477 26.35H156.477ZM152.911 16.2859C150.39 13.4629 147.015 12.15 143.227 12.15V20.15C145.038 20.15 146.13 20.7038 146.943 21.6141L152.911 16.2859ZM143.227 12.15C139.444 12.15 136.055 13.4179 133.494 16.1802L139.36 21.6198C140.199 20.7154 141.343 20.15 143.227 20.15V12.15ZM133.467 16.2093C130.968 18.9587 129.927 22.4947 129.927 26.35H137.927C137.927 23.9386 138.553 22.5079 139.387 21.5907L133.467 16.2093ZM129.927 26.35C129.927 30.1883 130.976 33.7005 133.443 36.4641L139.411 31.1359C138.545 30.1662 137.927 28.7117 137.927 26.35H129.927ZM133.494 36.5198C136.055 39.282 139.444 40.55 143.227 40.55V32.55C141.343 32.55 140.199 31.9846 139.36 31.0802L133.494 36.5198ZM188.383 13.9L192.075 15.4393L192.383 14.7005V13.9H188.383ZM175.833 44V48H178.499L179.525 45.5393L175.833 44ZM167.083 44L163.416 42.4023L160.978 48H167.083V44ZM179.783 14.85L183.451 16.4477L185.889 10.85H179.783V14.85ZM164.233 14.85H160.233V18.85H164.233V14.85ZM164.233 7.55V3.55H160.233V7.55H164.233ZM188.383 7.55H192.383V3.55H188.383V7.55ZM184.692 12.3607L172.142 42.4607L179.525 45.5393L192.075 15.4393L184.692 12.3607ZM175.833 40H167.083V48H175.833V40ZM170.751 45.5977L183.451 16.4477L176.116 13.2523L163.416 42.4023L170.751 45.5977ZM179.783 10.85H164.233V18.85H179.783V10.85ZM168.233 14.85V7.55H160.233V14.85H168.233ZM164.233 11.55H188.383V3.55H164.233V11.55ZM184.383 7.55V13.9H192.383V7.55H184.383Z" fill="black" mask="url(#path-3-outside-2_295_117)"/>
</svg>
