<svg width="32" height="32" viewBox="0 0 32 32" fill="none" xmlns="http://www.w3.org/2000/svg">
<path d="M25.3334 5.33337C26.0698 5.33337 26.6667 5.93033 26.6667 6.66671V9.33337C26.6667 10.0698 26.0698 10.6667 25.3334 10.6667C24.597 10.6667 24 10.0698 24 9.33337V6.66671C24 5.93033 24.597 5.33337 25.3334 5.33337Z" fill="#42C83C"/>
<path d="M17.3334 22.6667C17.3334 21.9303 16.7364 21.3334 16 21.3334C15.2637 21.3334 14.6667 21.9303 14.6667 22.6667V25.3334C14.6667 26.0698 15.2637 26.6667 16 26.6667C16.7364 26.6667 17.3334 26.0698 17.3334 25.3334L17.3334 22.6667Z" fill="#42C83C"/>
<path d="M16 5.33337C16.7364 5.33337 17.3334 5.93033 17.3334 6.66671V17.3334C17.3334 18.0698 16.7364 18.6667 16 18.6667C15.2637 18.6667 14.6667 18.0698 14.6667 17.3334V6.66671C14.6667 5.93033 15.2637 5.33337 16 5.33337Z" fill="#42C83C"/>
<path d="M8.00004 6.66671C8.00004 5.93033 7.40309 5.33337 6.66671 5.33337C5.93033 5.33337 5.33337 5.93033 5.33337 6.66671L5.33337 12C5.33337 12.7364 5.93033 13.3334 6.66671 13.3334C7.40309 13.3334 8.00004 12.7364 8.00004 12L8.00004 6.66671Z" fill="#42C83C"/>
<path d="M8.00004 17.3334C8.00004 16.597 7.40309 16 6.66671 16C5.93033 16 5.33337 16.597 5.33337 17.3334L5.33337 25.3334C5.33337 26.0698 5.93033 26.6667 6.66671 26.6667C7.40309 26.6667 8.00004 26.0698 8.00004 25.3334L8.00004 17.3334Z" fill="#42C83C"/>
<path d="M26.6667 14.6667C26.6667 13.9303 26.0698 13.3334 25.3334 13.3334C24.597 13.3334 24 13.9303 24 14.6667L24 25.3334C24 26.0698 24.597 26.6667 25.3334 26.6667C26.0698 26.6667 26.6667 26.0698 26.6667 25.3334V14.6667Z" fill="#42C83C"/>
<path fillRule="evenodd" clip-rule="evenodd" d="M25.3333 16C23.1242 16 21.3333 14.2091 21.3333 12C21.3333 9.79086 23.1242 8 25.3333 8C27.5424 8 29.3333 9.79086 29.3333 12C29.3333 14.2091 27.5424 16 25.3333 16ZM25.3333 13.3333C24.5969 13.3333 24 12.7364 24 12C24 11.2636 24.5969 10.6667 25.3333 10.6667C26.0697 10.6667 26.6666 11.2636 26.6666 12C26.6666 12.7364 26.0697 13.3333 25.3333 13.3333Z" fill="#42C83C"/>
<path fillRule="evenodd" clip-rule="evenodd" d="M12 20C12 22.2091 13.7908 24 16 24C18.2091 24 20 22.2091 20 20C20 17.7909 18.2091 16 16 16C13.7908 16 12 17.7909 12 20ZM14.6666 20C14.6666 20.7364 15.2636 21.3333 16 21.3333C16.7363 21.3333 17.3333 20.7364 17.3333 20C17.3333 19.2636 16.7363 18.6667 16 18.6667C15.2636 18.6667 14.6666 19.2636 14.6666 20Z" fill="#42C83C"/>
<path fillRule="evenodd" clip-rule="evenodd" d="M2.66663 14.6667C2.66663 16.8758 4.45749 18.6667 6.66663 18.6667C8.87577 18.6667 10.6666 16.8758 10.6666 14.6667C10.6666 12.4575 8.87577 10.6667 6.66663 10.6667C4.45749 10.6667 2.66663 12.4575 2.66663 14.6667ZM5.33329 14.6667C5.33329 15.403 5.93025 16 6.66663 16C7.40301 16 7.99996 15.403 7.99996 14.6667C7.99996 13.9303 7.40301 13.3333 6.66663 13.3333C5.93025 13.3333 5.33329 13.9303 5.33329 14.6667Z" fill="#42C83C"/>
</svg>
