<svg width="23" height="24" viewBox="0 0 23 24" fill="none" xmlns="http://www.w3.org/2000/svg">
<path d="M13.8361 7.53269C14.1163 7.24111 14.1183 6.76624 13.8406 6.47204C13.5629 6.17784 13.1107 6.17573 12.8305 6.46731L11.1212 8.2461C10.4774 8.91604 9.95128 9.46359 9.57813 9.95146C9.19011 10.4588 8.90922 10.9737 8.83418 11.5918C8.80128 11.8629 8.80128 12.1371 8.83418 12.4082C8.90922 13.0263 9.19011 13.5412 9.57813 14.0485C9.95128 14.5364 10.4774 15.084 11.1212 15.7539L12.8305 17.5327C13.1107 17.8243 13.5629 17.8222 13.8406 17.528C14.1183 17.2338 14.1163 16.7589 13.8361 16.4673L12.1571 14.72C11.4757 14.0109 11.0083 13.5228 10.692 13.1093C10.3847 12.7076 10.2793 12.4496 10.2513 12.2185C10.2337 12.0734 10.2337 11.9266 10.2513 11.7815C10.2793 11.5504 10.3847 11.2924 10.692 10.8907C11.0083 10.4772 11.4757 9.98914 12.1571 9.28L13.8361 7.53269Z" fill="#DDDDDD"/>
</svg>
