<svg width="37" height="36" viewBox="0 0 37 36" fill="none" xmlns="http://www.w3.org/2000/svg">
<path fillRule="evenodd" clipRule="evenodd" d="M18.4435 8.32258C16.5317 8.32258 14.9819 9.88236 14.9819 11.8065C14.9819 13.7305 16.5317 15.2903 18.4435 15.2903C20.3552 15.2903 21.905 13.7305 21.905 11.8065C21.905 9.88236 20.3552 8.32258 18.4435 8.32258ZM12.6743 11.8065C12.6743 8.59964 15.2572 6 18.4435 6C21.6297 6 24.2127 8.59964 24.2127 11.8065C24.2127 15.0133 21.6297 17.6129 18.4435 17.6129C15.2572 17.6129 12.6743 15.0133 12.6743 11.8065Z" fill="#737373"/>
<path fillRule="evenodd" clipRule="evenodd" d="M16.1672 22.2581C13.8133 22.2581 11.905 24.1786 11.905 26.5477C11.905 26.5939 11.9089 26.6312 11.9141 26.659C11.9148 26.6628 11.9155 26.6662 11.9161 26.6694C12.5324 27.0127 14.2763 27.6774 18.4435 27.6774C22.6107 27.6774 24.3546 27.0127 24.9708 26.6694C24.9715 26.6662 24.9722 26.6628 24.9729 26.659C24.9781 26.6312 24.9819 26.5939 24.9819 26.5477C24.9819 24.1786 23.0737 22.2581 20.7198 22.2581H16.1672ZM9.59733 26.5477C9.59733 22.8959 12.5388 19.9355 16.1672 19.9355H20.7198C24.3482 19.9355 27.2896 22.8959 27.2896 26.5477C27.2896 27.1993 27.0703 28.1226 26.1985 28.6383C25.1393 29.2649 22.9533 30 18.4435 30C13.9337 30 11.7477 29.2649 10.6885 28.6383C9.81671 28.1226 9.59733 27.1993 9.59733 26.5477Z" fill="#737373"/>
<path fillRule="evenodd" clipRule="evenodd" d="M25.4065 8.40669C25.5728 7.78754 26.2063 7.42127 26.8215 7.58861C28.9271 8.16138 30.3666 10.2426 30.3666 12.5806C30.3666 15.0517 28.6816 17.3135 26.2734 17.6046C25.6407 17.6811 25.0662 17.2269 24.9902 16.5901C24.9142 15.9533 25.3655 15.3751 25.9982 15.2986C27.0515 15.1713 28.0589 14.0852 28.0589 12.5806C28.0589 11.1524 27.1906 10.0949 26.2194 9.83074C25.6042 9.66341 25.2403 9.02583 25.4065 8.40669Z" fill="#737373"/>
<path fillRule="evenodd" clipRule="evenodd" d="M28.0802 20.8745C28.2022 20.245 28.8081 19.8342 29.4336 19.957C31.7626 20.4141 33.4435 22.4677 33.4435 24.8558V25.4837C33.4435 26.0797 33.2659 26.9803 32.439 27.5123C31.9221 27.8448 31.1387 28.1874 29.9543 28.4286C29.3297 28.5557 28.721 28.1492 28.5946 27.5206C28.4682 26.892 28.8721 26.2793 29.4967 26.1521C30.3751 25.9732 30.8714 25.7484 31.1271 25.5977L31.1275 25.5957C31.1323 25.5677 31.1358 25.5302 31.1358 25.4837V24.8558C31.1358 23.579 30.2371 22.481 28.9918 22.2366C28.3664 22.1138 27.9582 21.504 28.0802 20.8745Z" fill="#737373"/>
<path fillRule="evenodd" clipRule="evenodd" d="M11.4804 16.7546C11.3142 17.3738 10.6807 17.74 10.0655 17.5727C7.95986 16.9999 6.5204 14.9187 6.5204 12.5806C6.5204 10.1096 8.20538 7.84781 10.6136 7.55668C11.2463 7.48018 11.8208 7.93439 11.8968 8.57118C11.9728 9.20796 11.5215 9.78619 10.8888 9.86268C9.83543 9.99002 8.8281 11.0761 8.8281 12.5806C8.8281 14.0089 9.69633 15.0663 10.6676 15.3305C11.2828 15.4979 11.6467 16.1355 11.4804 16.7546Z" fill="#737373"/>
<path fillRule="evenodd" clipRule="evenodd" d="M8.80676 20.8745C8.68478 20.245 8.07885 19.8342 7.45338 19.957C5.12438 20.4141 3.44348 22.4677 3.44348 24.8558V25.4837C3.44348 26.0797 3.62106 26.9803 4.448 27.5123C4.9649 27.8448 5.74828 28.1874 6.93262 28.4286C7.55722 28.5557 8.166 28.1492 8.29236 27.5206C8.41873 26.892 8.01483 26.2793 7.39024 26.1521C6.51181 25.9732 6.01556 25.7484 5.75983 25.5977L5.75948 25.5957C5.75471 25.5677 5.75117 25.5302 5.75117 25.4837V24.8558C5.75117 23.579 6.64989 22.481 7.89512 22.2366C8.52059 22.1138 8.92874 21.504 8.80676 20.8745Z" fill="#737373"/>
</svg>
