<svg width="37" height="36" viewBox="0 0 37 36" fill="none" xmlns="http://www.w3.org/2000/svg">
<path fillRule="evenodd" clipRule="evenodd" d="M17.6161 8.82933C15.0521 6.15729 10.7343 6.1191 7.93321 8.85581C7.92433 8.86448 7.91532 8.873 7.90617 8.88138C5.18855 11.3706 5.1484 15.5366 7.93321 18.2573L7.94052 18.2645L18.4547 28.7204L29.164 18.2573C29.1728 18.2487 29.1818 18.2401 29.191 18.2318C31.9086 15.7426 31.9488 11.5766 29.164 8.85581C26.3779 6.13378 22.0388 6.13378 19.2527 8.85581C19.0326 9.07082 18.7361 9.18894 18.4289 9.18396C18.1217 9.17899 17.8292 9.05135 17.6161 8.82933ZM18.4684 6.47719C14.9406 3.60581 9.73297 3.87901 6.33616 7.18518C2.60062 10.6207 2.64387 16.3168 6.31911 19.9113L6.32286 19.915L17.6351 31.1645C18.082 31.609 18.8018 31.6122 19.2527 31.1717L30.7614 19.9276C34.4978 16.4908 34.4531 10.7924 30.7743 7.19814C27.3572 3.85958 22.1441 3.61926 18.4684 6.47719Z" fill="#737373"/>
</svg>
