<svg width="37" height="36" viewBox="0 0 37 36" fill="none" xmlns="http://www.w3.org/2000/svg">
<path fillRule="evenodd" clipRule="evenodd" d="M19.7287 5.69302C19.079 5.24565 18.2286 5.24565 17.5789 5.69302L6.86885 13.0681C6.36922 13.4121 6.06501 13.9665 6.04252 14.5619C5.96477 16.6198 5.88236 20.2236 6.10868 22.7815C6.27941 24.7111 6.73384 27.2619 7.10296 29.1383C7.27438 30.0098 8.03287 30.6425 8.93436 30.6425H13.9203C14.1327 30.6425 14.3049 30.4666 14.3049 30.2496V23.9629C14.3049 22.4439 15.5103 21.2125 16.9972 21.2125H20.7674C22.2544 21.2125 23.4598 22.4439 23.4598 23.9629V30.2496C23.4598 30.4666 23.632 30.6425 23.8444 30.6425H28.3733C29.2747 30.6425 30.0332 30.0098 30.2047 29.1383C30.5738 27.2619 31.0282 24.7111 31.1989 22.7815C31.4253 20.2236 31.3428 16.6198 31.2651 14.5619C31.2426 13.9665 30.9384 13.4121 30.4388 13.0681L19.7287 5.69302ZM16.2891 3.73817C17.7184 2.75394 19.5892 2.75394 21.0185 3.73817L31.7286 11.1132C32.8224 11.8664 33.5195 13.1047 33.5711 14.4709C33.6487 16.5266 33.7384 20.2678 33.4973 22.9937C33.3144 25.0599 32.8379 27.7178 32.4671 29.6028C32.073 31.6065 30.3424 33 28.3733 33H23.8444C22.3574 33 21.1521 31.7686 21.1521 30.2496V23.9629C21.1521 23.7459 20.9799 23.57 20.7674 23.57H16.9972C16.7848 23.57 16.6126 23.7459 16.6126 23.9629V30.2496C16.6126 31.7686 15.4072 33 13.9203 33H8.93436C6.96522 33 5.23465 31.6065 4.8405 29.6028C4.46969 27.7178 3.99317 25.0599 3.81036 22.9937C3.56917 20.2678 3.65888 16.5266 3.73654 14.471C3.78816 13.1047 4.48522 11.8664 5.57899 11.1132L16.2891 3.73817Z" fill="#737373"/>
</svg>
