<svg width="32" height="32" viewBox="0 0 32 32" fill="none" xmlns="http://www.w3.org/2000/svg">
<path fill-rule="evenodd" clip-rule="evenodd" d="M14.6666 26.6667C14.6666 25.9303 15.2636 25.3333 16 25.3333L20.2666 25.3333C21.4087 25.3333 22.1851 25.3323 22.7852 25.2833C23.3698 25.2355 23.6687 25.1489 23.8773 25.0427C24.379 24.787 24.787 24.3791 25.0426 23.8773C25.1489 23.6688 25.2355 23.3698 25.2832 22.7853C25.3323 22.1852 25.3333 21.4088 25.3333 20.2667L25.3333 11.7333C25.3333 10.5912 25.3323 9.81484 25.2832 9.21472C25.2355 8.63016 25.1489 8.33122 25.0426 8.12269C24.787 7.62093 24.379 7.21298 23.8773 6.95732C23.6687 6.85106 23.3698 6.7645 22.7852 6.71674C22.1851 6.6677 21.4087 6.66667 20.2666 6.66667L16 6.66667C15.2636 6.66667 14.6666 6.06971 14.6666 5.33333C14.6666 4.59696 15.2636 4 16 4L20.3217 4C21.395 3.99998 22.2808 3.99997 23.0024 4.05892C23.7519 4.12016 24.4408 4.25158 25.0879 4.5813C26.0914 5.09262 26.9073 5.90852 27.4187 6.91205C27.7484 7.55916 27.8798 8.2481 27.941 8.99757C28 9.71917 28 10.605 28 11.6783V20.3218C28 21.395 28 22.2808 27.941 23.0024C27.8798 23.7519 27.7484 24.4408 27.4187 25.0879C26.9073 26.0915 26.0914 26.9074 25.0879 27.4187C24.4408 27.7484 23.7519 27.8798 23.0024 27.9411C22.2808 28 21.395 28 20.3217 28H16C15.2636 28 14.6666 27.403 14.6666 26.6667Z" fill="#42C83C"/>
<path d="M10.2761 19.0572C10.7968 19.5778 10.7968 20.4221 10.2761 20.9428C9.75544 21.4635 8.91122 21.4635 8.39052 20.9428L4.39052 16.9428C3.86983 16.4221 3.86983 15.5778 4.39052 15.0572L8.39052 11.0572C8.91122 10.5365 9.75544 10.5365 10.2761 11.0572C10.7968 11.5778 10.7968 12.4221 10.2761 12.9428L8.55229 14.6666H20C20.7364 14.6666 21.3333 15.2636 21.3333 16C21.3333 16.7363 20.7364 17.3333 20 17.3333H8.55229L10.2761 19.0572Z" fill="#42C83C"/>
</svg>
