<svg width="37" height="61" viewBox="0 0 37 61" fill="none" xmlns="http://www.w3.org/2000/svg">
<path d="M35.8328 44.0503C36.2142 44.443 36.2089 45.0693 35.821 45.4555L21.3201 59.8944C20.6017 60.6187 19.6564 61 18.6733 61C18.6355 61 18.6355 61 18.6355 61C18.6355 61 18.6355 61 18.6355 61C17.6145 61 16.6692 60.5806 15.9508 59.8563L1.63375 45.2391C1.24933 44.8466 1.25352 44.2175 1.64312 43.8302L5.6317 39.8649C6.02552 39.4734 6.6629 39.4777 7.05135 39.8746L13.2152 46.1715C13.842 46.8118 14.9298 46.368 14.9298 45.472V1C14.9298 0.447715 15.3775 0 15.9298 0H21.4923C22.0446 0 22.4923 0.447715 22.4923 1V45.6241C22.4923 46.5149 23.5692 46.9611 24.1993 46.3314L30.5094 40.0241C30.9041 39.6297 31.5451 39.6345 31.9338 40.0348L35.8328 44.0503Z" fill="#42C83C"/>
</svg>
