<svg width="115" height="78" viewBox="0 0 115 78" fill="none" xmlns="http://www.w3.org/2000/svg">
<path d="M4.08682 0.323334C2.43002 0.310137 1.07622 1.64254 1.06302 3.29934L0.503472 73.5471C0.490275 75.2039 1.82268 76.5577 3.47948 76.5709L45.8531 76.9084L45.9139 69.2837L8.10257 68.9825L8.5599 11.5681L57.4325 47.3766L106.869 12.3511L106.412 69.7656L68.6007 69.4644L68.5399 77.0891L110.914 77.4267C112.57 77.4399 113.924 76.1075 113.937 74.4507L114.497 4.20288C114.51 2.54608 113.178 1.19228 111.521 1.17908L4.08682 0.323334ZM57.5072 37.9982L16.6044 8.04828L98.8818 8.70365L57.5072 37.9982Z" fill="#42C83C"/>
</svg>
