<svg width="32" height="32" viewBox="0 0 32 32" fill="none" xmlns="http://www.w3.org/2000/svg">
<path fill-rule="evenodd" clip-rule="evenodd" d="M16 5.33329C10.1089 5.33329 5.33329 10.1089 5.33329 16C5.33329 21.891 10.1089 26.6666 16 26.6666C21.891 26.6666 26.6666 21.891 26.6666 16C26.6666 10.1089 21.891 5.33329 16 5.33329ZM2.66663 16C2.66663 8.63616 8.63616 2.66663 16 2.66663C23.3638 2.66663 29.3333 8.63616 29.3333 16C29.3333 23.3638 23.3638 29.3333 16 29.3333C8.63616 29.3333 2.66663 23.3638 2.66663 16Z" fill="#42C83C"/>
<path fill-rule="evenodd" clip-rule="evenodd" d="M14.8443 12.6677C14.4755 13.3051 13.6599 13.5229 13.0225 13.1542C12.3851 12.7855 12.1673 11.9698 12.536 11.3324C13.2256 10.1403 14.5178 9.33337 16 9.33337C18.2092 9.33337 20 11.1242 20 13.3334C20 14.797 19.1022 15.992 18 16.6667C17.1147 17.2087 17.6667 18.6667 15.9965 18.6667C15.2602 18.6667 14.6632 18.0698 14.6632 17.3334C14.6632 17.2866 14.6656 17.2403 14.6703 17.1947C14.7073 16.4896 15.0217 15.9158 15.3641 15.4986C15.7257 15.058 16.201 14.6983 16.5645 14.4822C18.5868 13.28 16.1203 10.8206 14.8443 12.6677ZM15.9965 20C15.2602 20 14.6632 20.597 14.6632 21.3334C14.6632 22.0698 15.2602 22.6667 15.9965 22.6667C16.7329 22.6667 17.3299 22.0698 17.3299 21.3334C17.3299 20.597 16.7329 20 15.9965 20Z" fill="#42C83C"/>
</svg>
