<svg width="32" height="32" viewBox="0 0 32 32" fill="none" xmlns="http://www.w3.org/2000/svg">
<path fillRule="evenodd" clip-rule="evenodd" d="M12 21.3333C9.7909 21.3333 8.00004 23.1242 8.00004 25.3333C8.00004 26.0697 8.59699 26.6666 9.33337 26.6666H22.6667C23.4031 26.6666 24 26.0697 24 25.3333C24 23.1242 22.2092 21.3333 20 21.3333H12ZM5.33337 25.3333C5.33337 21.6514 8.31814 18.6666 12 18.6666H20C23.6819 18.6666 26.6667 21.6514 26.6667 25.3333C26.6667 27.5424 24.8758 29.3333 22.6667 29.3333H9.33337C7.12424 29.3333 5.33337 27.5424 5.33337 25.3333Z" fill="#42C83C"/>
<path fillRule="evenodd" clip-rule="evenodd" d="M16 5.33329C13.7909 5.33329 12 7.12415 12 9.33329C12 11.5424 13.7909 13.3333 16 13.3333C18.2092 13.3333 20 11.5424 20 9.33329C20 7.12415 18.2092 5.33329 16 5.33329ZM9.33337 9.33329C9.33337 5.65139 12.3181 2.66663 16 2.66663C19.6819 2.66663 22.6667 5.65139 22.6667 9.33329C22.6667 13.0152 19.6819 16 16 16C12.3181 16 9.33337 13.0152 9.33337 9.33329Z" fill="#42C83C"/>
</svg>
